<svg width="643" height="238" viewBox="0 0 643 238" fill="none" xmlns="http://www.w3.org/2000/svg">
<path d="M0 213.982V49.4924H26.8422L28.7353 65.5047C37.6665 52.5493 53.1991 46.9208 66.4017 46.9208C102.175 46.9208 125.959 73.5108 125.959 107.622C125.959 141.49 104.554 168.323 67.324 168.323C55.0921 168.323 36.9384 164.538 28.7353 151.825V213.982H0ZM97.2242 107.622C97.2242 89.523 84.9923 74.6753 64.266 74.6753C43.5397 74.6753 31.3078 89.523 31.3078 107.622C31.3078 125.72 44.7047 140.568 64.266 140.568C83.8274 140.568 97.2242 125.72 97.2242 107.622Z" fill="white"/>
<path d="M178.479 16.7886C178.479 39.1572 144.599 39.1572 144.599 16.7886C144.55 -5.58001 178.479 -5.58001 178.479 16.7886ZM147.171 49.0072V165.508H175.907V49.0072H147.171Z" fill="white"/>
<path d="M287.256 165.508V104.807C287.256 87.1453 277.596 73.7533 259.249 73.7533C241.58 73.7533 229.591 88.601 229.591 106.214V165.508H201.099V49.2497H226.776L228.669 65.0193C240.464 53.4711 252.21 47.6 266.821 47.6C294.148 47.6 316.04 68.0762 316.04 104.565V165.508H287.256Z" fill="white"/>
<path d="M431.805 37.7016L453.017 53.7138L440.057 70.2113C448.988 80.3524 452.289 91.8521 452.289 104.565C452.289 118.927 446.853 139.161 427.825 147.846C447.144 157.502 451.852 171.379 451.852 186.227C451.852 218.252 427.388 238 393.702 238C360.016 238 334.824 217.524 334.824 186.227H363.317C363.317 201.269 377.199 211.167 393.702 211.167C410.206 211.167 423.117 202.239 423.117 186.227C423.117 170.215 408.07 162.937 393.702 162.937C357.443 162.937 334.824 140.811 334.824 104.565C334.824 68.3189 361.181 45.7077 393.702 45.7077C402.876 45.7077 412.293 46.8722 420.302 52.3067L431.805 37.7016ZM363.268 104.565C363.268 124.798 376.908 136.832 393.654 136.832C410.157 136.832 423.797 124.604 423.797 104.565C423.797 84.5738 410.157 71.861 393.654 71.861C376.956 71.861 363.268 84.3312 363.268 104.565Z" fill="#EF7D16"/>
<path d="M500.052 49.4924V110.193C500.052 127.855 509.711 141.247 528.059 141.247C545.727 141.247 557.716 126.4 557.716 108.786V49.4924H586.209V165.751H560.532L558.639 149.981C546.649 161.772 535.582 167.401 519.322 167.401C491.557 167.401 471.316 146.439 471.316 110.436V49.4924H500.052Z" fill="white"/>
<path d="M643 16.7886C643 39.1572 609.12 39.1572 609.12 16.7886C609.071 -5.58001 643 -5.58001 643 16.7886ZM611.644 49.0072V165.508H640.379V49.0072H611.644Z" fill="white"/>
<path d="M393.896 117.811C401.376 117.811 407.439 111.75 407.439 104.274C407.439 96.797 401.376 90.736 393.896 90.736C386.417 90.736 380.354 96.797 380.354 104.274C380.354 111.75 386.417 117.811 393.896 117.811Z" fill="#EF7D16"/>
</svg>
